name pl05_filtered_grf.mot
datacolumns 37
datarows 12
range 1.014000 1.019500
endheader
time	1_ground_force_vx	1_ground_force_vy	1_ground_force_vz	1_ground_force_px	1_ground_force_py	1_ground_force_pz	1_ground_torque_x	1_ground_torque_y	1_ground_torque_z	2_ground_force_vx	2_ground_force_vy	2_ground_force_vz	2_ground_force_px	2_ground_force_py	2_ground_force_pz	2_ground_torque_x	2_ground_torque_y	2_ground_torque_z	3_ground_force_vx	3_ground_force_vy	3_ground_force_vz	3_ground_force_px	3_ground_force_py	3_ground_force_pz	3_ground_torque_x	3_ground_torque_y	3_ground_torque_z	4_ground_force_vx	4_ground_force_vy	4_ground_force_vz	4_ground_force_px	4_ground_force_py	4_ground_force_pz	4_ground_torque_x	4_ground_torque_y	4_ground_torque_z
            1.014000	          -38.483486	         1295.929120	          294.901897	            0.150998	            0.000000	            0.212351	           -0.957561	           32.245805	            7.337862	          142.781480	         1247.821691	          315.171409	           -0.204832	            0.000000	            0.232595	            6.041520	           52.799145	           13.335864	            0.454778	           -0.165342	           -1.519093	            0.412942	            1.262887	            1.874366	            0.031203	           -0.011954	            0.020401	           -1.137094	           -1.555154	           -2.975221	           -0.353702	            1.256226	            1.901770	            0.030871	           -0.001848	            0.025622
            1.014500	          -38.347749	         1299.881684	          291.977589	            0.151068	            0.000000	            0.212730	           -0.962175	           32.615042	            7.325945	          142.730209	         1254.931888	          311.776908	           -0.204474	            0.000000	            0.233348	            5.972190	           52.509495	           13.045527	            0.467213	           -0.161263	           -1.518598	            0.412940	            1.262886	            1.874362	            0.031070	           -0.011968	            0.020705	           -1.132421	           -1.554331	           -2.977928	           -0.353703	            1.256227	            1.901764	            0.030718	           -0.002212	            0.025195
            1.015000	          -38.170660	         1303.259460	          289.294037	            0.151123	            0.000000	            0.213087	           -0.965527	           32.965957	            7.317695	          142.569712	         1261.584308	          308.386880	           -0.204129	            0.000000	            0.234091	            5.898850	           52.198298	           12.759568	            0.479568	           -0.156979	           -1.518213	            0.412937	            1.262886	            1.874358	            0.030934	           -0.011981	            0.021011	           -1.126973	           -1.553731	           -2.980615	           -0.353704	            1.256227	            1.901759	            0.030562	           -0.002599	            0.024789
            1.015500	          -37.953914	         1306.064865	          286.861612	            0.151165	            0.000000	            0.213421	           -0.967640	           33.298280	            7.313571	          142.303328	         1267.773092	          305.017892	           -0.203798	            0.000000	            0.234824	            5.822013	           51.868013	           12.479104	            0.491815	           -0.152523	           -1.517950	            0.412936	            1.262884	            1.874352	            0.030794	           -0.011992	            0.021319	           -1.120749	           -1.553373	           -2.983243	           -0.353704	            1.256227	            1.901753	            0.030402	           -0.003007	            0.024405
            1.016000	          -37.699350	         1308.300956	          284.688932	            0.151193	            0.000000	            0.213731	           -0.968540	           33.611766	            7.313988	          141.934666	         1273.492517	          301.685931	           -0.203481	            0.000000	            0.235543	            5.742188	           51.521122	           12.205174	            0.503926	           -0.147918	           -1.517821	            0.412935	            1.262883	            1.874347	            0.030652	           -0.011999	            0.021627	           -1.113792	           -1.553193	           -2.985794	           -0.353704	            1.256226	            1.901747	            0.030240	           -0.003436	            0.024044
            1.016500	          -37.408939	         1309.971449	          282.782879	            0.151206	            0.000000	            0.214016	           -0.968261	           33.906186	            7.319311	          141.467585	         1278.737051	          298.406360	           -0.203180	            0.000000	            0.236248	            5.659879	           51.160110	           11.938734	            0.515875	           -0.143190	           -1.517833	            0.412934	            1.262882	            1.874342	            0.030507	           -0.012000	            0.021935	           -1.106132	           -1.553168	           -2.988239	           -0.353704	            1.256226	            1.901741	            0.030075	           -0.003885	            0.023708
            1.017000	          -37.084771	         1311.080736	          281.148628	            0.151204	            0.000000	            0.214276	           -0.966841	           34.181324	            7.329855	          140.906178	         1283.501412	          295.193873	           -0.202893	            0.000000	            0.236937	            5.575581	           50.787454	           11.680661	            0.527632	           -0.138366	           -1.517993	            0.412933	            1.262880	            1.874337	            0.030361	           -0.011994	            0.022242	           -1.097806	           -1.553273	           -2.990548	           -0.353705	            1.256226	            1.901735	            0.029907	           -0.004354	            0.023397
            1.017500	          -36.729047	         1311.633904	          279.789681	            0.151187	            0.000000	            0.214509	           -0.964322	           34.436977	            7.345884	          140.254749	         1287.780637	          292.062454	           -0.202622	            0.000000	            0.237609	            5.489775	           50.405611	           11.431750	            0.539169	           -0.133471	           -1.518304	            0.412932	            1.262879	            1.874332	            0.030213	           -0.011977	            0.022546	           -1.088856	           -1.553480	           -2.992689	           -0.353705	            1.256225	            1.901729	            0.029738	           -0.004840	            0.023112
            1.018000	          -36.344067	         1311.636741	          278.707914	            0.151155	            0.000000	            0.214715	           -0.960751	           34.672949	            7.367608	          139.517789	         1291.570141	          289.025344	           -0.202366	            0.000000	            0.238261	            5.402928	           50.016995	           11.192717	            0.550452	           -0.128534	           -1.518769	            0.412932	            1.262877	            1.874325	            0.030065	           -0.011950	            0.022846	           -1.079316	           -1.553802	           -2.994619	           -0.353705	            1.256224	            1.901722	            0.029566	           -0.005342	            0.022853
            1.018500	          -35.932213	         1311.095757	          277.903628	            0.151107	            0.000000	            0.214894	           -0.956178	           34.889049	            7.395183	          138.699960	         1294.865788	          286.095007	           -0.202127	            0.000000	            0.238892	            5.315488	           49.623975	           10.964203	            0.561455	           -0.123573	           -1.519385	            0.412932	            1.262876	            1.874319	            0.029917	           -0.011910	            0.023142	           -1.069253	           -1.554173	           -2.996320	           -0.353705	            1.256223	            1.901716	            0.029393	           -0.005859	            0.022622
            1.019000	          -35.495944	         1310.018194	          277.375614	            0.151044	            0.000000	            0.215045	           -0.950657	           35.085088	            7.428712	          137.806061	         1297.663949	          283.283110	           -0.201903	            0.000000	            0.239501	            5.227882	           49.228854	           10.746775	            0.572150	           -0.118608	           -1.520146	            0.412932	            1.262874	            1.874313	            0.029769	           -0.011855	            0.023433	           -1.058728	           -1.554566	           -2.997762	           -0.353705	            1.256222	            1.901709	            0.029218	           -0.006391	            0.022419
            1.019500	          -35.037779	         1308.412029	          277.121209	            0.150964	            0.000000	            0.215167	           -0.944246	           35.260878	            7.468242	          136.841013	         1299.961577	          280.600500	           -0.201695	            0.000000	            0.240085	            5.140517	           48.833862	           10.540932	            0.582505	           -0.113660	           -1.521046	            0.412932	            1.262873	            1.874307	            0.029621	           -0.011784	            0.023718	           -1.047805	           -1.554953	           -2.998917	           -0.353704	            1.256220	            1.901702	            0.029042	           -0.006935	            0.022243
